<mxfile host="app.diagrams.net" modified="2024-04-12T12:57:14.592Z" agent="Mozilla/5.0 (Windows NT 10.0; Win64; x64; rv:124.0) Gecko/20100101 Firefox/124.0" version="24.2.3" etag="HXGLEoOrLoHqT3XuKah9" type="github">
  <diagram name="Page-1" id="mqwZE6Ewk2ww1zyNV5bh">
    <mxGraphModel>
      <root>
        <mxCell id="0" />
        <mxCell id="1" parent="0" />
      </root>
    </mxGraphModel>
  </diagram>
</mxfile>
